<svg xmlns="http://www.w3.org/2000/svg" fill="#853ebd" role="img" viewBox="0 0 39 33" width="39" height="33">
	<style>
		svg {
			margin: 4.5px 7.5px;
			transition: transform 0.4s ease;
		}
		@media (prefers-color-scheme: dark) {
			svg {
				filter: drop-shadow(2.5px 2.5px 0px #301248);
			}
		}
		svg:hover {
			transform: scale(1.1);
		}
	</style>
	<!-- path d="M18.901 1.153h3.68l-8.04 9.19L24 22.846h-7.406l-5.8-7.584-6.638 7.584H.474l8.6-9.83L0 1.154h7.594l5.243 6.932ZM17.61 20.644h2.039L6.486 3.24H4.298Z" /-->
	<path d="M21.543 7.104c.015.211.015.423.015.636 0 6.507-4.954 14.01-14.01 14.01v-.003A13.94 13.94 0 0 1 0 19.539a9.88 9.88 0 0 0 7.287-2.041 4.93 4.93 0 0 1-4.6-3.42 4.916 4.916 0 0 0 2.223-.084A4.926 4.926 0 0 1 .96 9.167v-.062a4.887 4.887 0 0 0 2.235.616A4.928 4.928 0 0 1 1.67 3.148 13.98 13.98 0 0 0 11.82 8.292a4.929 4.929 0 0 1 8.39-4.49 9.868 9.868 0 0 0 3.128-1.196 4.941 4.941 0 0 1-2.165 2.724A9.828 9.828 0 0 0 24 4.555a10.019 10.019 0 0 1-2.457 2.549z" />
</svg>
